# xmcd
#
# Track frame offsets:
#	150
#	20030
#	37962
#	55368
#	70883
#	89718
#	108872
#	124119
#	143175
#	164251
#	190340
#	209974
#	227212
#	243949
#	263613
#	276971
#
# Disc length: 3923 seconds
#
# Revision: 2
# Processed by: cddbd v1.5.2PL0 Copyright (c) Steve Scherf et al.
# Submitted via: audiograbber 1.83.01
#
DISCID=f20f5110
DTITLE=Singing Machine - Country Love Songs - Vol. 1
DYEAR=1900
DGENRE=Country
TTITLE0=John Michael Montgomery - I Swear
TTITLE1=John Berry - Your Love Amazes Me
TTITLE2=Shania Twain - You're Still The One 
TTITLE3=Garth Brooks - Wrapped Up In You
TTITLE4=LeAnn Rimes - Unchained Melody
TTITLE5=Clint Black - When I Said I Do
TTITLE6=Martina McBride - Rose Garden
TTITLE7=Tracy Byrd - The Keeper Of The Stars
TTITLE8=Amy Grant w-Vince Gill - House of Love
TTITLE9=Bob Carlisle - Butterfly Kisses
TTITLE10=Alison Krauss and Union Station - When You Say Nothing At All
TTITLE11=Alabama - Then Again
TTITLE12=Terri Clark - Now That I Found You
TTITLE13=Vince Gill - When Love Finds You
TTITLE14=Patsy Cline - Crazy
TTITLE15=Garth Brooks - The Dance
EXTD=
EXTT0=
EXTT1=
EXTT2=
EXTT3=
EXTT4=
EXTT5=
EXTT6=
EXTT7=
EXTT8=
EXTT9=
EXTT10=
EXTT11=
EXTT12=
EXTT13=
EXTT14=
EXTT15=
PLAYORDER=
